<svg width="144" height="186" viewBox="0 0 144 186" fill="none" xmlns="http://www.w3.org/2000/svg">
<circle cx="71.8414" cy="72.4585" r="71.5" fill="#F1F1F1"/>
<rect x="43.7919" y="71.0012" width="70" height="98" rx="7" transform="rotate(2.5 43.7919 71.0012)" fill="#EEEEEE" stroke="#999999" stroke-width="2"/>
<rect x="2.17728" y="65.1392" width="74" height="102" rx="9" transform="rotate(-7.5 2.17728 65.1392)" fill="#FAFAFA" stroke="#999999" stroke-width="2"/>
<path d="M4.34346 73.9316C3.76676 69.5512 6.85034 65.5326 11.2308 64.9559L66.7517 57.6464C71.1322 57.0697 75.1508 60.1533 75.7275 64.5338L77.6854 79.4054L6.30136 88.8033L4.34346 73.9316Z" fill="#EEEEEE"/>
<rect x="90.2076" y="59.6015" width="3" height="10" rx="1.5" transform="rotate(82.5 90.2076 59.6015)" fill="#999999"/>
<rect x="62.8109" y="43.0358" width="3" height="10" rx="1.5" transform="rotate(-7.5 62.8109 43.0358)" fill="#999999"/>
<rect x="80.3886" y="45.7648" width="3" height="10" rx="1.5" transform="rotate(37.5 80.3886 45.7648)" fill="#999999"/>
<rect x="13.7636" y="91.8554" width="58" height="4" rx="2" transform="rotate(-7.5 13.7636 91.8554)" fill="#DCDCDC"/>
<rect x="16.3741" y="111.684" width="58" height="4" rx="2" transform="rotate(-7.5 16.3741 111.684)" fill="#DCDCDC"/>
<rect x="18.9846" y="131.513" width="58" height="4" rx="2" transform="rotate(-7.5 18.9846 131.513)" fill="#DCDCDC"/>
<rect x="14.8078" y="99.787" width="21" height="4" rx="2" transform="rotate(-7.5 14.8078 99.787)" fill="#EEEEEE"/>
<rect x="17.4183" y="119.616" width="21" height="4" rx="2" transform="rotate(-7.5 17.4183 119.616)" fill="#EEEEEE"/>
<rect x="20.0288" y="139.445" width="21" height="4" rx="2" transform="rotate(-7.5 20.0288 139.445)" fill="#EEEEEE"/>
</svg>
