<svg width="32" height="32" viewBox="0 0 32 32" fill="none" xmlns="http://www.w3.org/2000/svg">
<rect width="32" height="32" rx="5" fill="#CB1603"/>
<path d="M19.5207 25.4447H5.41936L8.43397 20.612H19.5207C19.8523 20.612 20.1366 20.4936 20.3735 20.2567C20.6104 20.0198 20.7288 19.7355 20.7288 19.4038C20.7288 19.0603 20.6104 18.8353 20.3735 18.7287C20.1366 18.6221 19.8523 18.5688 19.5207 18.5688H14.4748C13.6338 18.5688 12.8461 18.4089 12.1118 18.0891C11.3774 17.7693 10.7378 17.3369 10.1929 16.7921C9.64806 16.2354 9.21573 15.5898 8.89592 14.8555C8.58796 14.1211 8.43397 13.3334 8.43397 12.4924C8.43397 11.6514 8.58796 10.8638 8.89592 10.1294C9.21573 9.39502 9.64806 8.7554 10.1929 8.21055C10.7378 7.66569 11.3774 7.23928 12.1118 6.93131C12.8461 6.6115 13.6338 6.4516 14.4748 6.4516L26.5806 6.4516L24.3 11.2843L14.4748 11.2843C14.1431 11.2843 13.8589 11.4027 13.622 11.6396C13.3851 11.8765 13.2666 12.1608 13.2666 12.4924C13.2666 12.8359 13.3851 13.132 13.622 13.3808C13.8589 13.6177 14.1431 13.7361 14.4748 13.7361L19.5207 13.7361C20.3498 13.7361 21.1316 13.8783 21.8659 14.1625C22.6003 14.435 23.2399 14.8199 23.7848 15.3174C24.3296 15.8149 24.762 16.413 25.0818 17.1119C25.4016 17.8107 25.5615 18.5747 25.5615 19.4038C25.5615 20.2448 25.4016 21.0325 25.0818 21.7669C24.762 22.4894 24.3296 23.129 23.7848 23.6857C23.2399 24.2306 22.6003 24.6629 21.8659 24.9827C21.1316 25.2907 20.3498 25.4447 19.5207 25.4447Z" fill="white"/>
</svg>
