<svg width="557" height="124" viewBox="0 0 557 124" fill="none" xmlns="http://www.w3.org/2000/svg">
<path d="M507.628 107V27.62H525.17V60.058L538.498 27.62H555.648L540.948 63.488L556.334 107H538.498L527.032 71.916L525.17 75.052V107H507.628Z" fill="white"/>
<path d="M449.829 107L464.823 27.62H484.815L499.613 107H483.443L480.797 90.242H469.135L466.391 107H449.829ZM470.703 79.756H479.132L474.917 48.788L470.703 79.756Z" fill="white"/>
<path d="M394.89 107V27.62H416.744C422.101 27.62 426.74 28.208 430.66 29.384C434.58 30.56 437.618 32.6833 439.774 35.754C441.995 38.7593 443.106 43.0387 443.106 48.592C443.106 51.8587 442.844 54.766 442.322 57.314C441.799 59.862 440.819 62.0833 439.382 63.978C438.01 65.8073 436.017 67.3427 433.404 68.584L444.282 107H426.152L417.43 71.426H412.432V107H394.89ZM412.432 61.332H417.332C419.814 61.332 421.742 60.9073 423.114 60.058C424.486 59.1433 425.433 57.8693 425.956 56.236C426.544 54.5373 426.838 52.512 426.838 50.16C426.838 46.7627 426.217 44.1167 424.976 42.222C423.734 40.3273 421.448 39.38 418.116 39.38H412.432V61.332Z" fill="white"/>
<path d="M358.403 107V40.654H346.447V27.62H387.901V40.654H376.043V107H358.403Z" fill="white"/>
<path d="M295.646 107V27.62H316.324C319.721 27.62 322.922 27.8813 325.928 28.404C328.998 28.9267 331.71 29.9393 334.062 31.442C336.414 32.8793 338.243 34.97 339.55 37.714C340.922 40.3927 341.608 43.9533 341.608 48.396C341.608 51.5973 341.118 54.3087 340.138 56.53C339.223 58.686 337.884 60.4173 336.12 61.724C334.421 63.0307 332.363 63.9127 329.946 64.37C333.016 64.762 335.597 65.7747 337.688 67.408C339.778 68.976 341.346 71.0993 342.392 73.778C343.502 76.4567 344.058 79.6907 344.058 83.48C344.058 87.596 343.502 91.1567 342.392 94.162C341.346 97.102 339.811 99.5193 337.786 101.414C335.76 103.309 333.245 104.713 330.24 105.628C327.3 106.543 323.902 107 320.048 107H295.646ZM313.188 94.75H316.912C320.766 94.75 323.412 93.77 324.85 91.81C326.352 89.85 327.104 86.9753 327.104 83.186C327.104 80.1807 326.777 77.796 326.124 76.032C325.47 74.268 324.392 72.994 322.89 72.21C321.387 71.3607 319.362 70.936 316.814 70.936H313.188V94.75ZM313.188 59.372H316.618C319.296 59.372 321.322 58.98 322.694 58.196C324.066 57.3467 324.98 56.138 325.438 54.57C325.96 53.002 326.222 51.1073 326.222 48.886C326.222 46.7953 325.83 45.064 325.046 43.692C324.327 42.2547 323.216 41.1767 321.714 40.458C320.276 39.7393 318.447 39.38 316.226 39.38H313.188V59.372Z" fill="white"/>
<path d="M237.847 107L252.841 27.62H272.833L287.631 107H271.461L268.815 90.242H257.153L254.409 107H237.847ZM258.721 79.756H267.149L262.935 48.788L258.721 79.756Z" fill="white"/>
<path d="M198.22 107V27.62H215.762V95.142H233.99V107H198.22Z" fill="white"/>
<path d="M168.95 108.176C163.985 108.176 159.836 107.294 156.504 105.53C153.172 103.766 150.657 101.055 148.958 97.396C147.259 93.672 146.312 88.87 146.116 82.99L161.11 80.736C161.175 84.1333 161.469 86.8773 161.992 88.968C162.58 91.0587 163.364 92.5613 164.344 93.476C165.389 94.3907 166.631 94.848 168.068 94.848C169.897 94.848 171.073 94.2273 171.596 92.986C172.184 91.7447 172.478 90.438 172.478 89.066C172.478 85.7993 171.694 83.0553 170.126 80.834C168.558 78.5473 166.435 76.2607 163.756 73.974L156.896 67.996C153.891 65.448 151.343 62.5733 149.252 59.372C147.227 56.1053 146.214 52.0873 146.214 47.318C146.214 40.5887 148.207 35.46 152.192 31.932C156.177 28.3387 161.6 26.542 168.46 26.542C172.707 26.542 176.104 27.2607 178.652 28.698C181.265 30.1353 183.225 32.03 184.532 34.382C185.904 36.6687 186.819 39.1187 187.276 41.732C187.799 44.28 188.093 46.73 188.158 49.082L173.066 50.944C173.001 48.592 172.837 46.5667 172.576 44.868C172.38 43.104 171.923 41.7647 171.204 40.85C170.485 39.87 169.375 39.38 167.872 39.38C166.239 39.38 165.03 40.066 164.246 41.438C163.527 42.81 163.168 44.182 163.168 45.554C163.168 48.494 163.854 50.9113 165.226 52.806C166.663 54.6353 168.525 56.5627 170.812 58.588L177.378 64.37C180.841 67.31 183.748 70.642 186.1 74.366C188.517 78.09 189.726 82.696 189.726 88.184C189.726 91.908 188.877 95.3053 187.178 98.376C185.479 101.381 183.062 103.766 179.926 105.53C176.855 107.294 173.197 108.176 168.95 108.176Z" fill="white"/>
<path d="M0 17C0 7.61116 7.61116 0 17 0H107C116.389 0 124 7.61116 124 17V107C124 116.389 116.389 124 107 124H17C7.61116 124 0 116.389 0 107V17Z" fill="#CB1603"/>
<path d="M75.6426 98.5981H21L32.6816 79.8716H75.6426C76.9277 79.8716 78.0293 79.4126 78.9473 78.4946C79.8652 77.5767 80.3242 76.4751 80.3242 75.1899C80.3242 73.8589 79.8652 72.9868 78.9473 72.5737C78.0293 72.1606 76.9277 71.9541 75.6426 71.9541H56.0899C52.8311 71.9541 49.7788 71.3345 46.9331 70.0952C44.0874 68.856 41.6089 67.1807 39.4976 65.0693C37.3862 62.9121 35.7109 60.4106 34.4717 57.5649C33.2783 54.7192 32.6816 51.667 32.6816 48.4082C32.6816 45.1494 33.2783 42.0972 34.4717 39.2515C35.7109 36.4058 37.3862 33.9272 39.4976 31.8159C41.6089 29.7046 44.0874 28.0522 46.9331 26.8589C49.7788 25.6196 52.8311 25 56.0899 25L103 25L94.1626 43.7266L56.0899 43.7266C54.8047 43.7266 53.7031 44.1855 52.7852 45.1035C51.8672 46.0215 51.4082 47.123 51.4082 48.4082C51.4082 49.7393 51.8672 50.8867 52.7852 51.8506C53.7031 52.7686 54.8047 53.2275 56.0899 53.2275H75.6426C78.8555 53.2275 81.8848 53.7783 84.7305 54.8799C87.5762 55.9355 90.0547 57.4272 92.166 59.355C94.2774 61.2827 95.9526 63.6006 97.1919 66.3086C98.4312 69.0166 99.0508 71.9771 99.0508 75.1899C99.0508 78.4487 98.4312 81.501 97.1919 84.3467C95.9526 87.1465 94.2774 89.625 92.166 91.7822C90.0547 93.8936 87.5762 95.5688 84.7305 96.8081C81.8848 98.0015 78.8555 98.5981 75.6426 98.5981Z" fill="white"/>
</svg>
